<svg xmlns="http://www.w3.org/2000/svg" xmlns:xlink="http://www.w3.org/1999/xlink" version="1.1" x="0px" y="0px" viewBox="0 0 90 112.5" enable-background="new 0 0 90 90" xml:space="preserve"><g><g><path d="M45,4.5C34.3,4.5,25.7,15,25.7,28.1c0,13.1,8.7,23.6,19.3,23.6s19.3-10.6,19.3-23.6C64.3,15,55.7,4.5,45,4.5z M34.4,43.2    c-2.7-2.1-4.6-4.9-5.1-8.3c-0.2-1.5,2-2.1,2.2-0.6c0.5,2.8,1.8,5.2,4.1,7C36.7,42.1,35.5,44.1,34.4,43.2z M37.2,45.2    c-1.5,0-1.5-2.3,0-2.3S38.7,45.2,37.2,45.2z M53.1,13.2c-1.5,0-1.5-2.3,0-2.3S54.6,13.2,53.1,13.2z M59.4,26.4    c0-4.3-1.6-8.2-4.6-11.3c-1-1.1,0.6-2.7,1.6-1.6c3.5,3.5,5.3,8,5.3,12.9C61.7,27.8,59.4,27.8,59.4,26.4z"/></g></g><g><g><path d="M43,50.7c-1.3,1.7-2.5,3.5-3.1,5.5c-0.1,0.4-0.2,0.7,0,1.1c0.2,0.4,0.6,0.6,1,0.7c0.4,0.1,0.9,0,1.3-0.1    c2.8-0.5,5.6-0.9,8.4-1.4c0.1,0,0.2,0,0.3-0.1c0.3-0.2,0.1-0.7,0-1c-0.9-1.7-1.8-3.5-2.8-5.2"/></g></g><g><g><g><path d="M44.8,55.5c-3.2,2.4-4.5,5.9-3.3,9.8c0.6,1.9,2.4,3.4,3.8,4.7c4.2,3.9,6.3,8.5,2.9,13.9c-0.8,1.3,1.2,2.4,2,1.2     c2-3.2,2.9-7.3,1.3-10.9c-2.3-5.1-13.2-11-5.5-16.6C47.2,56.6,46,54.6,44.8,55.5L44.8,55.5z"/></g></g></g></svg>